<svg width="16" height="17" viewBox="0 0 16 17" fill="none" xmlns="http://www.w3.org/2000/svg">
<path d="M8.57216 11.8541C7.01359 11.8541 5.45501 11.8541 3.89644 11.8541C3.19554 11.8541 2.7667 11.444 2.68831 10.7275C2.55459 9.54432 2.40242 8.36115 2.25947 7.17798C2.11653 5.99952 1.97358 4.82578 1.83063 3.64732C1.75685 3.04867 1.68308 2.4453 1.61391 1.84664C1.60008 1.71937 1.55396 1.68637 1.43407 1.69109C1.22657 1.70051 1.01907 1.70051 0.811565 1.69109C0.35506 1.67694 0 1.29984 0 0.837883C0.00461117 0.385356 0.359671 0.0082492 0.811565 0.00353537C1.30035 -0.00117846 1.78913 -0.00117846 2.27792 0.00353537C2.74826 0.00353537 3.08026 0.314649 3.1402 0.790745C3.26932 1.79008 3.41226 2.78941 3.53677 3.79345C3.55521 3.94901 3.61515 3.95844 3.73966 3.95844C7.5992 3.95372 11.4588 3.95372 15.3137 3.95844C15.3921 3.95844 15.4751 3.95372 15.5535 3.96786C15.8716 4.02914 16.0607 4.34026 15.9823 4.67022C15.678 5.93353 15.369 7.19684 15.0601 8.46014C14.8572 9.28506 14.6543 10.11 14.456 10.9349C14.3085 11.5288 13.9027 11.8588 13.2986 11.8588C11.7262 11.8588 10.1492 11.8541 8.57216 11.8541Z" fill="#282929"/>
<path d="M4.96147 16.3701C4.05307 16.3654 3.31067 15.6018 3.31067 14.6731C3.31528 13.7445 4.06229 12.9856 4.97069 12.9856C5.87909 12.9903 6.62149 13.7539 6.62149 14.6826C6.62149 15.6159 5.87448 16.3748 4.96147 16.3701Z" fill="#282929"/>
<path d="M11.5925 12.9856C12.5056 12.9856 13.248 13.7445 13.2526 14.6731C13.2526 15.6065 12.5102 16.3654 11.5972 16.3701C10.6888 16.3701 9.94174 15.6112 9.93713 14.6779C9.93713 13.7492 10.6795 12.9856 11.5925 12.9856Z" fill="#282929"/>
</svg>
