<svg width="21" height="21" viewBox="0 0 21 21" fill="none" xmlns="http://www.w3.org/2000/svg">
<path d="M10.9965 15.2067C8.99717 15.2067 6.9978 15.2067 4.99843 15.2067C4.0993 15.2067 3.54918 14.6806 3.44862 13.7615C3.27708 12.2437 3.08187 10.7259 2.8985 9.20806C2.71512 7.69631 2.53175 6.19061 2.34837 4.67886C2.25373 3.91089 2.15908 3.13688 2.07036 2.36891C2.05261 2.20564 1.99346 2.16331 1.83966 2.16936C1.57347 2.18145 1.30728 2.18145 1.04109 2.16936C0.455478 2.15122 0 1.66746 0 1.07485C0.0059153 0.494343 0.461393 0.0105822 1.04109 0.00453525C1.66811 -0.00151175 2.29514 -0.00151175 2.92216 0.00453525C3.52552 0.00453525 3.95142 0.403638 4.02832 1.01438C4.19395 2.29635 4.37732 3.57831 4.53704 4.86632C4.5607 5.06587 4.6376 5.07796 4.79731 5.07796C9.74841 5.07192 14.6995 5.07192 19.6447 5.07796C19.7453 5.07796 19.8517 5.07192 19.9523 5.09006C20.3605 5.16867 20.603 5.56777 20.5024 5.99106C20.112 7.61166 19.7157 9.23225 19.3194 10.8528C19.0591 11.9111 18.7988 12.9693 18.5445 14.0275C18.3552 14.7894 17.8346 15.2127 17.0597 15.2127C15.0426 15.2127 13.0196 15.2067 10.9965 15.2067Z" fill="#282929"/>
<path d="M6.36475 21C5.19943 20.9939 4.24707 20.0143 4.24707 18.8231C4.25299 17.6318 5.21126 16.6582 6.37658 16.6582C7.54189 16.6643 8.49426 17.6439 8.49426 18.8352C8.49426 20.0325 7.53598 21.006 6.36475 21Z" fill="#282929"/>
<path d="M14.871 16.6582C16.0423 16.6582 16.9946 17.6318 17.0005 18.8231C17.0005 20.0204 16.0482 20.9939 14.8769 21C13.7116 21 12.7534 20.0264 12.7474 18.8291C12.7474 17.6378 13.6998 16.6582 14.871 16.6582Z" fill="#282929"/>
</svg>
