<svg xmlns="http://www.w3.org/2000/svg" viewBox="0 0 32 32"><defs><style>.cls-1{fill:#a1d8df;}.cls-2{fill:#d1e6e9;}.cls-3{fill:#68c7d3;}.cls-4{fill:#30acc2;}</style></defs><title>Fungi</title><g id="Fungi"><path class="cls-1" d="M8,15H4a8.53,8.53,0,0,0,1-4H7A8.53,8.53,0,0,0,8,15Z"/><path class="cls-2" d="M26,15H22a8.53,8.53,0,0,0,1-4h2A8.53,8.53,0,0,0,26,15Z"/><rect class="cls-3" x="1" y="15" width="30" height="4" rx="1"/><path class="cls-2" d="M26.31,31H5.69a2,2,0,0,1-2-1.67L2,19H30L28.28,29.33A2,2,0,0,1,26.31,31Z"/><path class="cls-1" d="M15,1h2a1,1,0,0,1,1,1V15a0,0,0,0,1,0,0H14a0,0,0,0,1,0,0V2A1,1,0,0,1,15,1Z"/><path class="cls-4" d="M9,10c0,1.1-1.34,1-3,1s-3,.1-3-1A3.43,3.43,0,0,1,6,7,3.43,3.43,0,0,1,9,10Z"/><path class="cls-3" d="M12,11c0,1.1-1.34,1-3,1s-3,.1-3-1A3.43,3.43,0,0,1,9,8,3.43,3.43,0,0,1,12,11Z"/><path class="cls-2" d="M11,15H7a3.42,3.42,0,0,0,1-2.41V12h2A3.61,3.61,0,0,0,11,15Z"/><path class="cls-3" d="M28,10c0,1.1-1.79,1-4,1s-4,.1-4-1,1.79-4,4-4S28,8.9,28,10Z"/></g></svg>