<?xml version="1.0" encoding="utf-8"?>
<!-- Generator: Adobe Illustrator 21.1.0, SVG Export Plug-In . SVG Version: 6.00 Build 0)  -->
<svg version="1.1" id="Icon_Set" xmlns="http://www.w3.org/2000/svg" xmlns:xlink="http://www.w3.org/1999/xlink" x="0px" y="0px"
	 viewBox="0 0 512 512" style="enable-background:new 0 0 512 512;" xml:space="preserve">
<style type="text/css">
	.st0{fill:#FFFFFF;}
	.st1{fill:#7DAC51;}
	.st2{fill:#5B7C31;}
	.st3{fill:#463218;}
	.st4{fill:#FEFE71;}
	.st5{fill:#D6CD1E;}
	.st6{fill:#E56823;}
	.st7{fill:#FE8E46;}
	.st8{fill:none;stroke:#FFFFFF;stroke-width:10;stroke-miterlimit:10;}
	.st9{fill:none;stroke:#463218;stroke-width:14;stroke-linecap:round;stroke-linejoin:round;stroke-miterlimit:10;}
	.st10{fill:#FE8D47;}
	.st11{fill:#E56724;}
</style>
<g id="HARVEST">
	<g>
		<g>
			<path class="st1" d="M359.4,275.1c-12.4-12.4-32.6-12.4-45,0c-12.4,12.4-32.6,12.4-45,0c-12.4-12.4-32.6-12.4-45,0
				s-32.6,12.4-45,0c-12.4-12.4-32.6-12.4-45,0v0c0,61.1,49.6,110.7,110.7,110.7h3.5C309.8,385.8,359.4,336.2,359.4,275.1
				L359.4,275.1z"/>
		</g>
	</g>
	<g>
		<g>
			<g>
				<path class="st2" d="M173.6,275.1L173.6,275.1c0.9-0.9,1.9-1.8,2.9-2.6c-12.5-9.8-30.6-9-42.1,2.6v0
					c0,61.1,49.6,110.7,110.7,110.7h3.5c6.1,0,12-0.5,17.8-1.4C213.9,375.8,173.6,330.2,173.6,275.1z"/>
			</g>
		</g>
	</g>
	<g>
		<g>
			<path class="st1" d="M242.1,143.5c12.7-6.4,28.4-5.9,41.1,2.5c12.7,8.4,19.3,22.7,18.4,36.9c-12.7,6.4-28.4,5.9-41.1-2.5
				C247.8,172,241.3,157.7,242.1,143.5z"/>
		</g>
	</g>
	<g>
		<g>
			<path class="st1" d="M145.1,178.3c10.7-5.3,23.8-5,34.5,2.1s16.1,19,15.4,30.9c-10.7,5.3-23.8,5-34.5-2.1
				C149.9,202.2,144.4,190.2,145.1,178.3z"/>
		</g>
	</g>
	<g>
		<g>
			<path class="st4" d="M179.4,275.1c12.4,12.4,32.6,12.4,45,0c5.8-5.8,13.2-8.8,20.7-9.3c0.4-2.6,0.6-5.2,0.6-8
				c0-23.7-16.3-42.9-36.3-42.9c-4.6,0-8.9,1-12.9,2.8c-4-1.8-8.4-2.8-12.9-2.8c-20.1,0-36.3,19.2-36.3,42.9c0,3.1,0.3,6.2,0.8,9.1
				C158.9,263.9,170.9,266.6,179.4,275.1z"/>
		</g>
	</g>
	<g>
		<g>
			<path class="st5" d="M174.1,267c-0.5-2.9-0.8-6-0.8-9.1c0-23.7,16.2-42.9,36.2-42.9c0,0-0.1,0-0.1,0c-4.6,0-8.9,1-12.9,2.8
				c-4-1.8-8.4-2.8-12.9-2.8c-20.1,0-36.3,19.2-36.3,42.9c0,3.1,0.3,6.2,0.8,9.1C158.9,263.9,184.9,263.9,174.1,267z"/>
		</g>
	</g>
	<g>
		<g>
			<path class="st1" d="M377.5,131.7c-16.2-8.1-36.1-7.5-52.2,3.1c-16.2,10.7-24.5,28.8-23.4,46.8c16.2,8.1,36.1,7.5,52.2-3.1
				C370.2,167.8,378.6,149.7,377.5,131.7z"/>
		</g>
	</g>
	<g>
		<g>
			<path class="st7" d="M266.8,272.8c0.9,0.7,1.8,1.5,2.6,2.3c12.4,12.4,32.6,12.4,45,0c4-4,8.9-6.7,14-8.2l3.8-48.9
				c1.5-19.9-14.2-36.9-34.1-36.9h-1.5c-19.9,0-35.7,17-34.1,36.9L266.8,272.8z"/>
		</g>
	</g>
	<g>
		<g>
			<path class="st6" d="M292.6,283.5c-0.8-0.8-1.7-1.6-2.6-2.3l-4.3-54.7c-1.5-19.9,14.2-36.9,34.1-36.9h0.7
				c-6-5.2-13.8-8.4-22.4-8.4h-1.5c-19.9,0-35.7,17-34.1,36.9l4.3,54.7c0.9,0.7,1.8,1.5,2.6,2.3c6.6,6.6,15.5,9.7,24.1,9.3
				C293.2,284.1,292.9,283.8,292.6,283.5z"/>
		</g>
	</g>
	<g>
		<g>
			<path class="st3" d="M248.7,392.8h-3.5c-64.9,0-117.7-52.8-117.7-117.7c0-1.9,0.7-3.6,2-4.9c7.3-7.3,17.1-11.4,27.4-11.4
				c10.4,0,20.1,4,27.4,11.4c4.7,4.7,10.9,7.3,17.5,7.3s12.9-2.6,17.5-7.3c15.1-15.1,39.8-15.1,54.9,0c4.7,4.7,10.9,7.3,17.5,7.3
				s12.9-2.6,17.5-7.3c7.3-7.3,17.1-11.4,27.4-11.4c10.4,0,20.1,4,27.4,11.4c1.3,1.3,2,3.1,2,4.9C366.4,340,313.6,392.8,248.7,392.8
				z M141.5,278.2c1.6,55.8,47.5,100.6,103.7,100.6h3.5c56.2,0,102-44.9,103.7-100.6c-4.4-3.5-9.8-5.4-15.5-5.4
				c-6.6,0-12.9,2.6-17.5,7.3c-7.3,7.3-17.1,11.4-27.4,11.4c-10.4,0-20.1-4-27.4-11.4c-4.7-4.7-10.9-7.3-17.5-7.3
				c-6.6,0-12.9,2.6-17.5,7.3c-7.3,7.3-17.1,11.4-27.4,11.4c-10.4,0-20.1-4-27.4-11.4c-4.7-4.7-10.9-7.3-17.5-7.3
				C151.2,272.8,145.8,274.7,141.5,278.2z"/>
		</g>
	</g>
	<g>
		<g>
			<path class="st7" d="M163.1,349.4h167.7c9.5-10.5,17.1-22.9,22-36.5H141C146,326.5,153.5,338.8,163.1,349.4z"/>
		</g>
	</g>
	<g>
		<g>
			<path class="st3" d="M330.8,356.4H163.1c-2,0-3.9-0.8-5.2-2.3c-10.3-11.4-18.2-24.5-23.4-38.9c-0.8-2.1-0.5-4.5,0.8-6.4
				c1.3-1.9,3.4-3,5.7-3h211.8c2.3,0,4.4,1.1,5.7,3c1.3,1.9,1.6,4.3,0.8,6.4c-5.2,14.4-13.1,27.5-23.4,38.9
				C334.6,355.5,332.7,356.4,330.8,356.4z M166.2,342.4h161.4c5.9-6.9,10.8-14.4,14.7-22.5H151.5
				C155.4,327.9,160.3,335.5,166.2,342.4z"/>
		</g>
	</g>
	<g>
		<g>
			<path class="st3" d="M291.9,291.4c-10.4,0-20.1-4-27.4-11.4c-0.6-0.6-1.3-1.2-2-1.8c-1.5-1.2-2.4-3-2.6-4.9l-4.3-54.7
				c-0.9-11.4,3.1-22.8,10.8-31.2c7.8-8.4,18.8-13.2,30.2-13.2h1.5c11.4,0,22.5,4.8,30.2,13.2c7.8,8.4,11.7,19.8,10.8,31.2
				l-3.8,48.9c-0.2,2.9-2.3,5.4-5.1,6.2c-4.1,1.1-7.9,3.3-10.9,6.4C312,287.4,302.3,291.4,291.9,291.4z M273.6,269.4
				c0.3,0.3,0.5,0.5,0.8,0.8c4.7,4.7,10.9,7.3,17.5,7.3s12.9-2.6,17.5-7.3c3.5-3.5,7.7-6.4,12.3-8.3l3.5-44.3
				c0.6-7.6-1.9-15-7.2-20.6c-5.2-5.6-12.3-8.7-20-8.7h-1.5c-7.7,0-14.8,3.1-20,8.7c-5.2,5.6-7.7,12.9-7.2,20.6L273.6,269.4z"/>
		</g>
	</g>
	<g>
		<g>
			<path class="st3" d="M298.1,188.2c-3.9,0-7-3.1-7-7v-25.3c0-3.9,3.1-7,7-7s7,3.1,7,7v25.3C305.1,185,302,188.2,298.1,188.2z"/>
		</g>
	</g>
	<g>
		<g>
			<path class="st3" d="M280.6,227.3H263c-3.9,0-7-3.1-7-7s3.1-7,7-7h17.7c3.9,0,7,3.1,7,7S284.5,227.3,280.6,227.3z"/>
		</g>
	</g>
	<g>
		<g>
			<path class="st3" d="M330.3,252.2h-36.7c-3.9,0-7-3.1-7-7s3.1-7,7-7h36.7c3.9,0,7,3.1,7,7S334.2,252.2,330.3,252.2z"/>
		</g>
	</g>
	<g>
		<g>
			<path class="st3" d="M325.2,194.1c-9.1,0-18.2-2.1-26.5-6.2c-2.2-1.1-3.7-3.4-3.9-5.9c-1.2-21.1,8.9-41.4,26.5-53.1
				c17.6-11.6,40.3-13,59.2-3.6c2.2,1.1,3.7,3.4,3.9,5.9c1.2,21.1-8.9,41.4-26.5,53.1C348.1,190.8,336.7,194.1,325.2,194.1z
				 M308.8,177.1c13.6,5.3,29.2,3.7,41.5-4.4c12.3-8.1,19.8-21.8,20.3-36.4c-13.6-5.3-29.2-3.7-41.5,4.4
				C316.8,148.8,309.3,162.5,308.8,177.1z"/>
		</g>
	</g>
	<g>
		<g>
			<path class="st3" d="M283.2,194.1c-9.3,0-18.6-2.7-26.6-7.9c-14.3-9.4-22.6-26-21.6-43.1c0.1-2.5,1.6-4.7,3.9-5.9
				c15.4-7.7,33.8-6.6,48.1,2.9c14.3,9.4,22.6,26,21.6,43.1c-0.1,2.5-1.6,4.7-3.9,5.9C298,192.5,290.6,194.1,283.2,194.1z
				 M249.1,148.1c0.7,10.6,6.3,20.5,15.3,26.4c9,5.9,20.2,7.2,30.3,3.7c-0.7-10.6-6.3-20.5-15.3-26.4
				C270.4,145.9,259.1,144.6,249.1,148.1z"/>
		</g>
	</g>
	<g>
		<g>
			<path class="st3" d="M179.6,221.9c-8,0-16-2.3-22.9-6.8c-12.3-8.1-19.4-22.4-18.6-37.1c0.1-2.5,1.6-4.7,3.9-5.9
				c13.2-6.6,29.1-5.6,41.4,2.5c12.3,8.1,19.4,22.4,18.6,37.1c-0.1,2.5-1.6,4.7-3.9,5.9C192.3,220.4,185.9,221.9,179.6,221.9z
				 M152.2,183c0.8,8.2,5.3,15.8,12.2,20.4c7,4.6,15.7,5.7,23.5,3.2c-0.8-8.2-5.3-15.8-12.2-20.4C168.7,181.6,160,180.5,152.2,183z"
				/>
		</g>
	</g>
	<g>
		<g>
			<path class="st3" d="M201.9,291.4c-10.4,0-20.1-4-27.4-11.4l0,0c-6.4-6.4-15.7-8.8-24.4-6.3c-1.9,0.5-3.9,0.3-5.6-0.8
				c-1.7-1-2.8-2.7-3.2-4.7c-0.6-3.4-1-6.9-1-10.4c0-27.5,19.4-49.9,43.3-49.9c4.4,0,8.7,0.8,12.9,2.3c4.2-1.5,8.5-2.3,12.9-2.3
				c23.9,0,43.3,22.4,43.3,49.9c0,3-0.2,6-0.7,9.1c-0.5,3.3-3.2,5.7-6.5,5.9c-6.1,0.3-11.8,2.9-16.2,7.2
				C222,287.4,212.3,291.4,201.9,291.4z M156.9,258.8c10.2,0,20.1,4,27.5,11.4l0,0c4.7,4.7,10.9,7.3,17.5,7.3s12.9-2.6,17.5-7.3
				c5.3-5.3,12-8.9,19.3-10.5c0-0.6,0-1.2,0-1.8c0-19.8-13.1-35.9-29.3-35.9c-3.4,0-6.8,0.7-10.1,2.2c-1.8,0.8-3.9,0.8-5.8,0
				c-3.2-1.5-6.6-2.2-10-2.2c-16.2,0-29.3,16.1-29.3,35.9c0,0.3,0,0.7,0,1C155.2,258.8,156,258.8,156.9,258.8z"/>
		</g>
	</g>
	<g>
		<g>
			<g>
				<g>
					<rect x="270.7" y="325.7" class="st0" width="30.8" height="10.8"/>
				</g>
			</g>
		</g>
		<g>
			<g>
				<g>
					<rect x="310.8" y="325.7" class="st0" width="11.7" height="10.8"/>
				</g>
			</g>
		</g>
	</g>
</g>
</svg>
