<svg width="31" height="31" viewBox="0 0 31 31" fill="none" xmlns="http://www.w3.org/2000/svg">
<path d="M5.87 0H20.13C23.37 0 26 2.63 26 5.87V20.13C26 23.37 23.37 26 20.13 26H5.87C2.63 26 0 23.37 0 20.13V5.87C0 2.63 2.63 0 5.87 0Z" fill="url(#paint0_linear_7_363)"/>
<path d="M30.998 11.513V24.7405C30.998 26.2516 30.4778 27.6519 29.6175 28.75C29.6175 28.75 29.6175 28.7601 29.6075 28.7601C29.2974 29.153 28.9473 29.5056 28.5571 29.8179C28.5571 29.8179 28.5571 29.8179 28.5471 29.8179C27.4467 30.6943 26.0662 31.2182 24.5556 31.2182H11.4305C7.87915 31.2182 4.99805 28.3168 4.99805 24.7405V11.513C4.99805 10.022 5.49824 8.6418 6.34857 7.54371C6.75872 7.00977 7.24891 6.53628 7.80913 6.15346C8.83952 5.43819 10.09 5.02515 11.4305 5.02515H24.5656C25.9761 5.02515 27.2766 5.47849 28.337 6.25421C28.357 6.26428 28.377 6.28443 28.397 6.30458C28.8972 6.67732 29.3474 7.13066 29.7276 7.63438C29.7376 7.65453 29.7576 7.67467 29.7676 7.69482C30.5479 8.76269 30.998 10.0824 30.998 11.513Z" fill="url(#paint1_linear_7_363)"/>
<path d="M29.6172 28.75C29.6172 28.7601 29.6172 28.7601 29.6172 28.75C29.3071 29.153 28.957 29.5056 28.5668 29.8179C28.5668 29.8179 28.5668 29.8179 28.5568 29.8179C26.266 27.5109 23.9651 25.1938 21.6742 22.8868C21.134 22.3428 20.5938 21.8089 20.0636 21.2548C19.9135 21.1037 19.8735 21.1339 19.8235 21.3152C19.6634 21.8592 19.4934 22.4033 19.3233 22.9473C19.2833 23.0883 19.2333 23.2193 19.1332 23.3301C18.7931 23.7129 18.2429 23.6726 17.9227 23.2293C17.4126 22.504 16.9024 21.7787 16.4022 21.0533C16.3221 20.9324 16.2321 20.8921 16.092 20.8921C15.2417 20.9123 14.3914 20.9123 13.5411 20.9223C13.401 20.9223 13.261 20.9223 13.1209 20.872C12.6207 20.6906 12.4706 20.1265 12.8108 19.6631C13.331 18.9478 13.8612 18.2325 14.3914 17.5273C14.4814 17.4165 14.4914 17.3158 14.4414 17.1747C14.1613 16.3587 13.8912 15.5427 13.6111 14.7267C13.5411 14.5353 13.501 14.3338 13.5711 14.1323C13.7111 13.6991 14.1113 13.5077 14.5815 13.6588C15.4118 13.9409 16.2521 14.223 17.0824 14.5151C17.2225 14.5655 17.3225 14.5453 17.4426 14.4547C18.1228 13.9308 18.8231 13.417 19.5034 12.8932C19.7234 12.732 19.9535 12.6212 20.2336 12.7018C20.6038 12.8025 20.8039 13.0846 20.8039 13.5178C20.7939 14.3942 20.7838 15.2808 20.7638 16.1572C20.7638 16.3083 20.8139 16.399 20.9339 16.4897C21.6542 16.9934 22.3645 17.5072 23.0747 18.0109C23.3448 18.2023 23.4949 18.4441 23.4449 18.7765C23.3949 19.1191 23.1748 19.3205 22.8546 19.4112C22.5245 19.5119 22.1844 19.6228 21.8543 19.7235C21.5641 19.8142 21.284 19.9048 20.9239 20.0157C21.0439 20.1063 21.124 20.1567 21.184 20.2171C23.9851 23.0782 26.8062 25.9192 29.6172 28.75Z" fill="white"/>
<path d="M25.956 11.7448C25.766 12.0873 25.6059 12.3794 25.4458 12.6817C25.3858 12.7925 25.3158 12.8731 25.1957 12.9335C24.8956 13.0947 24.5955 13.266 24.2554 13.4473C24.5155 13.5883 24.7356 13.7294 24.9756 13.8402C25.2458 13.9611 25.4358 14.1525 25.5559 14.4245C25.6659 14.6562 25.806 14.8778 25.946 15.1398C26.1261 14.8073 26.2962 14.5051 26.4562 14.2029C26.5162 14.0921 26.5863 14.0115 26.6963 13.951C26.9964 13.7898 27.2965 13.6186 27.6367 13.4372C27.3366 13.276 27.0765 13.1148 26.7963 12.9738C26.6163 12.8831 26.4862 12.7522 26.3962 12.5708C26.2661 12.3089 26.1161 12.047 25.956 11.7448Z" fill="white"/>
<path d="M13.4211 25.4658C13.3211 25.1132 13.231 24.7807 13.121 24.4584C13.091 24.3476 13.081 24.2468 13.121 24.1259C13.211 23.8438 13.2811 23.5618 13.3711 23.2797C13.4111 23.1386 13.4011 23.058 13.241 23.1286C12.5208 23.4509 11.8005 23.4409 11.0802 23.048C11.0402 23.2495 11.1002 23.3804 11.1602 23.5013C11.3903 24.0252 11.3903 24.539 11.1502 25.0628C11.1202 25.1333 11.1102 25.224 11.0802 25.3046C11.0302 25.4356 11.0502 25.5061 11.2003 25.4356C11.9105 25.1031 12.6108 25.1535 13.3111 25.4557C13.3411 25.4759 13.3611 25.4658 13.4211 25.4658Z" fill="white"/>
<path d="M16.6525 12.5505C16.8226 12.2483 16.9326 11.9158 17.1627 11.6942C17.3828 11.4726 17.7229 11.3517 18.0631 11.1603C17.3528 10.9487 16.9126 10.4954 16.6825 9.77002C16.4925 10.1226 16.3724 10.4551 16.1623 10.6666C15.9423 10.8883 15.6121 10.9991 15.312 11.1804C15.6221 11.3517 15.9523 11.4726 16.1723 11.6942C16.3724 11.9158 16.4825 12.2483 16.6525 12.5505Z" fill="white"/>
<path d="M18.6932 27.662C18.023 27.4202 17.5828 26.9668 17.3327 26.2919C17.0826 26.9668 16.6424 27.4101 15.9722 27.6519C16.6324 27.9038 17.0926 28.3269 17.3227 29.022C17.5928 28.3571 18.0029 27.8937 18.6932 27.662Z" fill="white"/>
<path d="M11.4004 15.6937C11.2604 16.1168 11.0103 16.3687 10.6201 16.5299C11.0003 16.6911 11.2704 16.9429 11.4104 17.3358C11.5605 16.953 11.8206 16.6911 12.2407 16.54C12.0307 16.4191 11.8506 16.3486 11.7205 16.2277C11.5905 16.0967 11.5305 15.9154 11.4004 15.6937Z" fill="white"/>
<defs>
<linearGradient id="paint0_linear_7_363" x1="1.71933" y1="24.2806" x2="24.2806" y2="1.71939" gradientUnits="userSpaceOnUse">
<stop stop-color="#6031FA"/>
<stop offset="1" stop-color="#B827EB"/>
</linearGradient>
<linearGradient id="paint1_linear_7_363" x1="9.17267" y1="6.04742" x2="26.7193" y2="29.7312" gradientUnits="userSpaceOnUse">
<stop offset="0.285" stop-color="#3333EA"/>
<stop offset="1" stop-color="#5929CE" stop-opacity="0.5"/>
</linearGradient>
</defs>
</svg>
